<svg id="Layer_1" data-name="Layer 1" xmlns="http://www.w3.org/2000/svg" viewBox="0 0 1000 1000"><defs><style>.cls-1{fill:#60c196;}.cls-2{fill:#010101;}</style></defs><circle class="cls-1" cx="500" cy="500" r="273.88"/><path class="cls-2" d="M669.14,446.55l33.06-36H628.92a229,229,0,0,0-257.61,0H297.83l33.06,36A101,101,0,0,0,467.45,595.48l.18-.16L500,630.56l32.37-35.22A101,101,0,1,0,669.14,446.55ZM399,589.59a68.38,68.38,0,1,1,68.37-68.37A68.37,68.37,0,0,1,399,589.59ZM500,519.25c0-45-32.73-83.6-75.89-100.11a197.24,197.24,0,0,1,151.76,0C532.74,435.65,500,474.26,500,519.25Zm101,70.34a68.38,68.38,0,1,1,68.37-68.37A68.37,68.37,0,0,1,601,589.59Zm0-104.21a35.85,35.85,0,1,0,35.84,35.84h0A35.84,35.84,0,0,0,601,485.38ZM434.81,521.22A35.85,35.85,0,1,1,399,485.38h0A35.84,35.84,0,0,1,434.81,521.22Z"/></svg>